<?xml version="1.0" standalone="no"?><!DOCTYPE svg PUBLIC "-//W3C//DTD SVG 1.1//EN" "http://www.w3.org/Graphics/SVG/1.1/DTD/svg11.dtd"><svg t="1684560708477" class="icon" viewBox="0 0 1024 1024" version="1.1" xmlns="http://www.w3.org/2000/svg" p-id="1564" xmlns:xlink="http://www.w3.org/1999/xlink" width="200" height="200"><path d="M506.269638 460.742171A219.541226 219.541226 0 1 1 286.728412 241.83181a219.436082 219.436082 0 0 1 219.541226 218.910361z" fill="#000000" p-id="1565"></path><path d="M370.528391 203.979875a8.516685 8.516685 0 0 1-8.726974-8.516686 9.042407 9.042407 0 0 1 8.726974-9.147551h300.50231a8.726974 8.726974 0 0 1 0 17.348804H372.526132a6.098367 6.098367 0 0 1-1.997741 0.315433zM671.030701 256.657152H370.528391a8.726974 8.726974 0 0 1-8.726974-8.62183 9.147551 9.147551 0 0 1 10.514427-8.726974h298.714857a8.726974 8.726974 0 0 1 0 17.348804z" fill="#000000" p-id="1566"></path><path d="M795.7318 203.664442H671.030701a8.726974 8.726974 0 1 1 0-17.348804h124.701099a8.726974 8.726974 0 1 1 0 17.348804zM795.7318 256.657152H671.030701a8.726974 8.726974 0 1 1 0-17.348804h124.701099a8.726974 8.726974 0 1 1 0 17.348804z" fill="#000000" p-id="1567"></path><path d="M671.030701 256.657152a35.223329 35.223329 0 1 1 0-70.341514 8.726974 8.726974 0 0 1 0 17.348804 17.874525 17.874525 0 1 0 0 35.643906 8.726974 8.726974 0 0 1 0 17.348804zM375.575316 256.657152a35.223329 35.223329 0 1 1 0-70.341514 8.726974 8.726974 0 1 1 0 17.348804 17.874525 17.874525 0 0 0 0 35.643906 8.726974 8.726974 0 1 1 0 17.348804zM787.215114 256.657152a35.223329 35.223329 0 1 1 0-70.341514 8.726974 8.726974 0 1 1 0 17.348804 17.874525 17.874525 0 0 0 0 35.643906 8.726974 8.726974 0 1 1 0 17.348804z" fill="#000000" p-id="1568"></path><path d="M325.106068 256.762296a8.726974 8.726974 0 0 1-8.726974-8.62183 8.832118 8.832118 0 0 1 8.726974-8.832118h415.950714a8.726974 8.726974 0 1 1 0 17.348804H325.106068zM741.056782 350.866413H325.106068a8.726974 8.726974 0 1 1 0.841155-17.453948h415.109559a8.726974 8.726974 0 1 1 0 17.453948zM694.583017 292.826779h-60.352809a8.726974 8.726974 0 1 1 0-17.348804h60.352809a8.726974 8.726974 0 1 1 0 17.348804zM801.935312 428.042304h-58.880789a8.726974 8.726974 0 1 1 0-17.453948h58.880789a8.726974 8.726974 0 1 1 0 17.453948zM851.037684 404.174556h-103.987679a8.726974 8.726974 0 1 1 0-17.348804h103.987679a8.726974 8.726974 0 1 1 0 17.348804z" fill="#000000" p-id="1569"></path><path d="M741.056782 350.866413a55.831605 55.831605 0 1 1 0-111.558065 8.726974 8.726974 0 1 1 0 17.348804 38.377657 38.377657 0 1 0 0 76.755313 8.726974 8.726974 0 1 1 0 17.453948zM327.839819 350.866413a55.831605 55.831605 0 0 1 0-111.558065 8.726974 8.726974 0 1 1 0 17.348804 38.377657 38.377657 0 1 0 0 76.755313 8.726974 8.726974 0 0 1 0 17.453948z" fill="#000000" p-id="1570"></path><path d="M936.625116 495.334634H433.509806a8.726974 8.726974 0 1 1 0-17.348804h471.256597a103.77739 103.77739 0 0 1-19.031112-63.61228 103.672246 103.672246 0 0 1 19.031112-63.08656H433.509806a8.726974 8.726974 0 0 1 0-17.453948h503.11531a8.726974 8.726974 0 1 1 0 17.453948c-16.192217 0-33.541021 25.550056-33.541021 63.08656s17.348804 63.612281 33.541021 63.61228a8.726974 8.726974 0 1 1 0 17.348804z" fill="#000000" p-id="1571"></path><path d="M433.509806 495.334634c-28.59924 0-50.994969-35.538762-50.994969-80.961084s22.395729-80.961084 50.994969-80.961085a8.726974 8.726974 0 0 1 0 17.453948c-18.189958 0-33.541021 29.124961-33.541021 63.08656s15.351063 63.612281 33.541021 63.61228a8.726974 8.726974 0 1 1 0 17.348804zM781.852757 495.334634c-28.59924 0-50.994969-35.538762-50.994969-80.961084s22.395729-80.961084 50.994969-80.961085a8.726974 8.726974 0 1 1 0 17.453948c-16.192217 0-33.541021 25.550056-33.541021 63.08656s17.348804 63.612281 33.541021 63.61228a8.726974 8.726974 0 1 1 0 17.348804z" fill="#000000" p-id="1572"></path><path d="M860.500667 576.82144H362.327138a8.726974 8.726974 0 0 1 0-17.453948h469.258856a53.939008 53.939008 0 0 1-10.514426-31.54328 53.308143 53.308143 0 0 1 9.778417-31.54328H362.327138a8.726974 8.726974 0 0 1 0-17.453948h495.755211a8.62183 8.62183 0 0 1 1.892597 17.138516 31.54328 31.54328 0 0 0-21.028853 31.543279 30.491837 30.491837 0 0 0 22.92145 31.54328 8.726974 8.726974 0 0 1-1.261731 17.348804z" fill="#000000" p-id="1573"></path><path d="M685.120033 577.136872c-23.867748 0-43.319437-22.18544-43.319437-49.522949a46.789198 46.789198 0 0 1 43.319437-49.417804 8.726974 8.726974 0 1 1 0 17.348803 29.440394 29.440394 0 0 0-25.865489 31.54328 29.440394 29.440394 0 0 0 25.865489 31.54328 8.726974 8.726974 0 1 1 0 17.453948zM362.642571 576.82144a46.263477 46.263477 0 0 1-42.793716-48.892084 46.158332 46.158332 0 0 1 42.793716-48.892083 8.726974 8.726974 0 1 1 0 17.348804 29.019817 29.019817 0 0 0-25.339768 31.543279 28.914673 28.914673 0 0 0 25.339768 31.54328 8.726974 8.726974 0 1 1 0 17.453948z" fill="#000000" p-id="1574"></path><path d="M910.654482 576.716295h-536.235753a8.726974 8.726974 0 1 1 0-17.453948h536.235753a8.726974 8.726974 0 0 1 0 17.453948zM910.654482 671.451278h-536.235753a8.726974 8.726974 0 0 1 0-17.453948h536.235753a8.726974 8.726974 0 1 1 0 17.453948z" fill="#000000" p-id="1575"></path><path d="M781.537324 671.871855c-17.979669 0-26.180922-29.230106-26.180922-56.357326s8.201253-56.357326 26.180922-56.357326a8.726974 8.726974 0 0 1 0 17.453948c-2.102885 1.261731-8.832118 14.615053-8.832118 38.903378s6.729233 37.641647 9.568128 39.008523a8.306397 8.306397 0 0 1 8.306397 8.726974 8.937263 8.937263 0 0 1-9.042407 8.621829zM371.895266 671.871855c-17.979669 0-26.180922-29.230106-26.180922-56.357326s8.201253-56.357326 26.180922-56.357326a8.726974 8.726974 0 0 1 0 17.453948c-2.102885 1.261731-8.726974 14.615053-8.726974 38.903378s6.624089 37.641647 9.462984 39.008523a8.306397 8.306397 0 0 1 8.306397 8.726974 8.937263 8.937263 0 0 1-9.042407 8.621829zM893.726255 671.871855a14.825341 14.825341 0 0 1-5.152069-0.946298c-15.561351-5.152069-21.028853-33.120444-21.028853-55.411028 0-25.865489 7.254954-53.202998 23.447171-56.147037a15.351063 15.351063 0 0 1 5.782935 0 8.726974 8.726974 0 0 1-2.628607 17.138515c-2.944039 2.20803-9.147551 15.456207-9.147551 38.903378s6.624089 37.536503 9.462984 39.008522a7.990964 7.990964 0 0 1 10.514427 5.152069 9.147551 9.147551 0 0 1-5.888079 11.250437 14.825341 14.825341 0 0 1-5.362358 1.051442zM787.740836 728.43947h-73.600986a8.726974 8.726974 0 1 1 0-17.348804h73.600986a8.726974 8.726974 0 0 1 0 17.348804zM843.151864 758.090153H714.981004a8.726974 8.726974 0 0 1 0-17.453948h128.17086a8.726974 8.726974 0 0 1 0 17.453948zM532.660848 732.855529h-4.310915a8.726974 8.726974 0 1 1 0-17.348803h4.310915a8.726974 8.726974 0 1 1 0 17.348803z m-60.878529 0h-4.41606a8.726974 8.726974 0 0 1 0-17.348803h4.41606a8.726974 8.726974 0 1 1 0 17.348803z" fill="#000000" p-id="1576"></path><path d="M467.366259 732.855529H286.728412a8.726974 8.726974 0 1 1 0-17.348803h180.637847a8.726974 8.726974 0 1 1 0 17.348803zM436.874422 766.817127H287.779854a8.726974 8.726974 0 1 1 0-17.453948h149.094568a8.726974 8.726974 0 0 1 0 17.453948z" fill="#000000" p-id="1577"></path><path d="M941.67204 828.957388h-640.328576a8.726974 8.726974 0 1 1 0.73601-17.453948h621.612897a194.201458 194.201458 0 0 1-10.514427-69.815792 197.250642 197.250642 0 0 1 10.514427-70.341514h-620.351166a8.62183 8.62183 0 0 1-10.514426-8.096108V662.408872a8.726974 8.726974 0 0 1 8.726974-8.726974h643.062327a8.726974 8.726974 0 0 1 8.726974 8.726974 9.042407 9.042407 0 0 1-3.049184 6.729233 8.832118 8.832118 0 0 1-6.308656 2.313173c-4.310915 3.364616-13.668754 26.706643-13.668754 70.026081s9.883561 68.02834 14.089331 70.341514a8.62183 8.62183 0 0 1 5.993223 9.568128 8.832118 8.832118 0 0 1-8.726974 7.570387z" fill="#000000" p-id="1578"></path><path d="M730.437211 828.957388a7.044666 7.044666 0 0 1-2.523462 0c-19.346545-5.782935-26.180922-50.364103-26.180922-86.849163 0-32.489578 6.4138-87.585173 30.596981-87.585173a8.832118 8.832118 0 0 1 9.673272 8.516685 8.726974 8.726974 0 0 1-9.883561 8.62183c-3.259472 2.102885-13.143033 25.550056-13.143033 70.131225s9.883561 68.02834 14.089332 70.341513a8.62183 8.62183 0 0 1 5.67779 10.514427 8.832118 8.832118 0 0 1-8.306397 6.308656zM301.448609 828.957388a7.254954 7.254954 0 0 1-2.628607 0c-19.346545-5.782935-26.180922-50.364103-26.180922-86.849163 0-32.489578 6.4138-87.585173 30.596981-87.585173a8.832118 8.832118 0 0 1 9.673273 8.516685 8.516685 8.516685 0 0 1-9.883561 8.62183c-3.154328 2.102885-13.037889 25.550056-13.037889 70.131225s9.883561 68.02834 13.984187 70.341513a8.516685 8.516685 0 0 1 5.67779 10.514427 8.726974 8.726974 0 0 1-8.201252 6.308656zM348.868672 142.891057h-95.681281a8.726974 8.726974 0 0 1 0-17.348804h95.681281a8.726974 8.726974 0 1 1 0 17.348804zM940.410309 283.889516H935.783961a8.726974 8.726974 0 0 1 0-17.453948h4.310915a8.726974 8.726974 0 0 1 0 17.453948z m-60.87853 0h-4.416059a8.726974 8.726974 0 0 1 0-17.453948h4.416059a8.726974 8.726974 0 0 1 0 17.453948zM283.889516 426.46514h-4.416059a8.726974 8.726974 0 1 1 0-17.453948H283.889516a8.726974 8.726974 0 0 1 0 17.453948z m-60.983674 0h-4.416059a8.726974 8.726974 0 0 1 0-17.453948h4.416059a8.726974 8.726974 0 0 1 0 17.453948z" fill="#000000" p-id="1579"></path><path d="M218.174351 426.46514h-95.576138a8.726974 8.726974 0 1 1 0-17.453948h95.576138a8.726974 8.726974 0 0 1 0 17.453948zM235.207722 588.807886h-71.077524a8.726974 8.726974 0 0 1 0-17.453948h71.077524a8.726974 8.726974 0 0 1 0 17.453948zM238.256905 500.696991h-4.310915a8.726974 8.726974 0 1 1 0-17.348803h4.310915a8.726974 8.726974 0 1 1 0 17.348803z m-60.983674 0h-4.310915a8.726974 8.726974 0 1 1 0-17.348803h4.310915a8.726974 8.726974 0 1 1 0 17.348803z m-60.878529 0h-4.416059a8.726974 8.726974 0 0 1 0-17.348803h4.416059a8.726974 8.726974 0 1 1 0 17.348803z" fill="#000000" p-id="1580"></path></svg>