<?xml version="1.0" standalone="no"?><!DOCTYPE svg PUBLIC "-//W3C//DTD SVG 1.1//EN" "http://www.w3.org/Graphics/SVG/1.1/DTD/svg11.dtd"><svg t="1684566159874" class="icon" viewBox="0 0 1024 1024" version="1.1" xmlns="http://www.w3.org/2000/svg" p-id="8446" xmlns:xlink="http://www.w3.org/1999/xlink" width="200" height="200"><path d="M661.333333 597.333333l-33.92 0-11.733333-11.733333c41.813333-48.426667 66.986667-111.36 66.986667-180.266667 0-153.173333-124.16-277.333333-277.333333-277.333333s-277.333333 124.16-277.333333 277.333333 124.16 277.333333 277.333333 277.333333c68.906667 0 131.84-25.173333 180.266667-66.773333l11.733333 11.733333 0 33.706667 213.333333 212.906667 63.573333-63.573333-212.906667-213.333333zM405.333333 597.333333c-106.026667 0-192-85.973333-192-192s85.973333-192 192-192 192 85.973333 192 192-85.973333 192-192 192z" fill="#ffffff" p-id="8447"></path></svg>